<svg width="218" height="39" viewBox="0 0 218 39" fill="none" xmlns="http://www.w3.org/2000/svg">
<path d="M7.47266 2.49988C9.49799 23.9999 36.4727 25.5 41.9726 17.4999C47.4726 9.49976 39.5 2.49988 30.9727 5.49988C22.4453 8.49988 22 31 36.4727 30.9999" stroke="white" stroke-linecap="round"/>
<path d="M16.0418 5.79559L7.24444 1.94118L1.55291 9.67788" stroke="white" stroke-linecap="round"/>
<path d="M48.5795 30H47.5227C47.4602 29.696 47.3509 29.429 47.1946 29.1989C47.0412 28.9688 46.8537 28.7756 46.6321 28.6193C46.4134 28.4602 46.1705 28.3409 45.9034 28.2614C45.6364 28.1818 45.358 28.142 45.0682 28.142C44.5398 28.142 44.0611 28.2756 43.6321 28.5426C43.206 28.8097 42.8665 29.2031 42.6136 29.723C42.3636 30.2429 42.2386 30.8807 42.2386 31.6364C42.2386 32.392 42.3636 33.0298 42.6136 33.5497C42.8665 34.0696 43.206 34.4631 43.6321 34.7301C44.0611 34.9972 44.5398 35.1307 45.0682 35.1307C45.358 35.1307 45.6364 35.0909 45.9034 35.0114C46.1705 34.9318 46.4134 34.8139 46.6321 34.6577C46.8537 34.4986 47.0412 34.304 47.1946 34.0739C47.3509 33.8409 47.4602 33.5739 47.5227 33.2727H48.5795C48.5 33.7187 48.3551 34.1179 48.1449 34.4702C47.9347 34.8224 47.6733 35.1222 47.3608 35.3693C47.0483 35.6136 46.6974 35.7997 46.3082 35.9276C45.9219 36.0554 45.5085 36.1193 45.0682 36.1193C44.3239 36.1193 43.6619 35.9375 43.0824 35.5739C42.5028 35.2102 42.0469 34.6932 41.7145 34.0227C41.3821 33.3523 41.2159 32.5568 41.2159 31.6364C41.2159 30.7159 41.3821 29.9205 41.7145 29.25C42.0469 28.5795 42.5028 28.0625 43.0824 27.6989C43.6619 27.3352 44.3239 27.1534 45.0682 27.1534C45.5085 27.1534 45.9219 27.2173 46.3082 27.3452C46.6974 27.473 47.0483 27.6605 47.3608 27.9077C47.6733 28.152 47.9347 28.4503 48.1449 28.8026C48.3551 29.152 48.5 29.5511 48.5795 30ZM51.1566 27.2727V36H50.1509V27.2727H51.1566ZM52.9986 36V29.4545H54.0043V36H52.9986ZM53.5099 28.3636C53.3139 28.3636 53.1449 28.2969 53.0028 28.1634C52.8636 28.0298 52.794 27.8693 52.794 27.6818C52.794 27.4943 52.8636 27.3338 53.0028 27.2003C53.1449 27.0668 53.3139 27 53.5099 27C53.706 27 53.8736 27.0668 54.0128 27.2003C54.1548 27.3338 54.2259 27.4943 54.2259 27.6818C54.2259 27.8693 54.1548 28.0298 54.0128 28.1634C53.8736 28.2969 53.706 28.3636 53.5099 28.3636ZM58.5053 36.1364C57.8917 36.1364 57.3633 35.9915 56.9201 35.7017C56.4769 35.4119 56.136 35.0128 55.8974 34.5043C55.6587 33.9957 55.5394 33.4148 55.5394 32.7614C55.5394 32.0966 55.6616 31.5099 55.9059 31.0014C56.1531 30.4901 56.4968 30.0909 56.9371 29.804C57.3803 29.5142 57.8974 29.3693 58.4883 29.3693C58.9485 29.3693 59.3633 29.4545 59.7326 29.625C60.1019 29.7955 60.4045 30.0341 60.6403 30.3409C60.8761 30.6477 61.0224 31.0057 61.0792 31.4148H60.0735C59.9968 31.1165 59.8263 30.8523 59.5621 30.6222C59.3008 30.3892 58.9485 30.2727 58.5053 30.2727C58.1133 30.2727 57.7695 30.375 57.4741 30.5795C57.1815 30.7812 56.9528 31.0668 56.788 31.4361C56.6261 31.8026 56.5451 32.233 56.5451 32.7273C56.5451 33.233 56.6246 33.6733 56.7837 34.0483C56.9457 34.4233 57.1729 34.7145 57.4656 34.9219C57.761 35.1293 58.1076 35.233 58.5053 35.233C58.7667 35.233 59.0039 35.1875 59.217 35.0966C59.43 35.0057 59.6104 34.875 59.7582 34.7045C59.9059 34.5341 60.011 34.3295 60.0735 34.0909H61.0792C61.0224 34.4773 60.8817 34.8253 60.6573 35.1349C60.4357 35.4418 60.1417 35.6861 59.7752 35.8679C59.4116 36.0469 58.9883 36.1364 58.5053 36.1364ZM63.4869 33.6136L63.4698 32.3693H63.6744L66.538 29.4545H67.7823L64.7312 32.5398H64.646L63.4869 33.6136ZM62.5494 36V27.2727H63.555V36H62.5494ZM66.7085 36L64.1516 32.7614L64.8675 32.0625L67.9869 36H66.7085ZM73.4574 32.0625V36H72.4517V27.2727H73.4574V30.4773H73.5426C73.696 30.1392 73.9261 29.8707 74.233 29.6719C74.5426 29.4702 74.9545 29.3693 75.4688 29.3693C75.9148 29.3693 76.3054 29.4588 76.6406 29.6378C76.9759 29.8139 77.2358 30.0852 77.4205 30.4517C77.608 30.8153 77.7017 31.2784 77.7017 31.8409V36H76.696V31.9091C76.696 31.3892 76.5611 30.9872 76.2912 30.7031C76.0241 30.4162 75.6534 30.2727 75.179 30.2727C74.8494 30.2727 74.554 30.3423 74.2926 30.4815C74.0341 30.6207 73.8295 30.8239 73.679 31.0909C73.5313 31.358 73.4574 31.6818 73.4574 32.0625ZM82.2859 36.1364C81.6552 36.1364 81.1112 35.9972 80.6538 35.7188C80.1992 35.4375 79.8484 35.0455 79.6012 34.5426C79.3569 34.0369 79.2347 33.4489 79.2347 32.7784C79.2347 32.108 79.3569 31.517 79.6012 31.0057C79.8484 30.4915 80.1921 30.0909 80.6325 29.804C81.0756 29.5142 81.5927 29.3693 82.1836 29.3693C82.5245 29.3693 82.8612 29.4261 83.1935 29.5398C83.5259 29.6534 83.8285 29.8381 84.1012 30.0938C84.3739 30.3466 84.5913 30.6818 84.7532 31.0994C84.9151 31.517 84.9961 32.0312 84.9961 32.642V33.0682H79.9506V32.1989H83.9734C83.9734 31.8295 83.8995 31.5 83.7518 31.2102C83.6069 30.9205 83.3995 30.6918 83.1296 30.5241C82.8626 30.3565 82.5472 30.2727 82.1836 30.2727C81.783 30.2727 81.4364 30.3722 81.1438 30.571C80.854 30.767 80.631 31.0227 80.4748 31.3381C80.3185 31.6534 80.2404 31.9915 80.2404 32.3523V32.9318C80.2404 33.4261 80.3256 33.8452 80.4961 34.1889C80.6694 34.5298 80.9094 34.7898 81.2163 34.9688C81.5231 35.1449 81.8796 35.233 82.2859 35.233C82.5501 35.233 82.7887 35.196 83.0018 35.1222C83.2177 35.0455 83.4038 34.9318 83.56 34.7812C83.7163 34.6278 83.837 34.4375 83.9222 34.2102L84.8938 34.483C84.7915 34.8125 84.6197 35.1023 84.3782 35.3523C84.1367 35.5994 83.8384 35.7926 83.4833 35.9318C83.1282 36.0682 82.729 36.1364 82.2859 36.1364ZM86.5259 36V29.4545H87.4975V30.4432H87.5657C87.685 30.1193 87.9009 29.8565 88.2134 29.6548C88.5259 29.4531 88.8782 29.3523 89.2702 29.3523C89.3441 29.3523 89.4364 29.3537 89.5472 29.3565C89.658 29.3594 89.7418 29.3636 89.7987 29.3693V30.392C89.7646 30.3835 89.6864 30.3707 89.5643 30.3537C89.445 30.3338 89.3185 30.3239 89.185 30.3239C88.8668 30.3239 88.5827 30.3906 88.3327 30.5241C88.0856 30.6548 87.8896 30.8366 87.7447 31.0696C87.6026 31.2997 87.5316 31.5625 87.5316 31.858V36H86.5259ZM93.5359 36.1364C92.9052 36.1364 92.3612 35.9972 91.9038 35.7188C91.4492 35.4375 91.0984 35.0455 90.8512 34.5426C90.6069 34.0369 90.4847 33.4489 90.4847 32.7784C90.4847 32.108 90.6069 31.517 90.8512 31.0057C91.0984 30.4915 91.4421 30.0909 91.8825 29.804C92.3256 29.5142 92.8427 29.3693 93.4336 29.3693C93.7745 29.3693 94.1112 29.4261 94.4435 29.5398C94.7759 29.6534 95.0785 29.8381 95.3512 30.0938C95.6239 30.3466 95.8413 30.6818 96.0032 31.0994C96.1651 31.517 96.2461 32.0312 96.2461 32.642V33.0682H91.2006V32.1989H95.2234C95.2234 31.8295 95.1495 31.5 95.0018 31.2102C94.8569 30.9205 94.6495 30.6918 94.3796 30.5241C94.1126 30.3565 93.7972 30.2727 93.4336 30.2727C93.033 30.2727 92.6864 30.3722 92.3938 30.571C92.104 30.767 91.881 31.0227 91.7248 31.3381C91.5685 31.6534 91.4904 31.9915 91.4904 32.3523V32.9318C91.4904 33.4261 91.5756 33.8452 91.7461 34.1889C91.9194 34.5298 92.1594 34.7898 92.4663 34.9688C92.7731 35.1449 93.1296 35.233 93.5359 35.233C93.8001 35.233 94.0387 35.196 94.2518 35.1222C94.4677 35.0455 94.6538 34.9318 94.81 34.7812C94.9663 34.6278 95.087 34.4375 95.1722 34.2102L96.1438 34.483C96.0415 34.8125 95.8697 35.1023 95.6282 35.3523C95.3867 35.5994 95.0884 35.7926 94.7333 35.9318C94.3782 36.0682 93.979 36.1364 93.5359 36.1364ZM103.998 29.4545V30.3068H100.605V29.4545H103.998ZM101.594 27.8864H102.6V34.125C102.6 34.4091 102.641 34.6222 102.723 34.7642C102.809 34.9034 102.917 34.9972 103.047 35.0455C103.181 35.0909 103.321 35.1136 103.469 35.1136C103.58 35.1136 103.671 35.108 103.742 35.0966C103.813 35.0824 103.87 35.071 103.912 35.0625L104.117 35.9659C104.049 35.9915 103.953 36.017 103.831 36.0426C103.709 36.071 103.554 36.0852 103.367 36.0852C103.083 36.0852 102.804 36.0241 102.532 35.902C102.262 35.7798 102.037 35.5938 101.858 35.3438C101.682 35.0938 101.594 34.7784 101.594 34.3977V27.8864ZM108.099 36.1364C107.508 36.1364 106.99 35.9957 106.544 35.7145C106.1 35.4332 105.754 35.0398 105.504 34.5341C105.257 34.0284 105.133 33.4375 105.133 32.7614C105.133 32.0795 105.257 31.4844 105.504 30.9759C105.754 30.4673 106.1 30.0724 106.544 29.7912C106.99 29.5099 107.508 29.3693 108.099 29.3693C108.69 29.3693 109.207 29.5099 109.65 29.7912C110.096 30.0724 110.443 30.4673 110.69 30.9759C110.94 31.4844 111.065 32.0795 111.065 32.7614C111.065 33.4375 110.94 34.0284 110.69 34.5341C110.443 35.0398 110.096 35.4332 109.65 35.7145C109.207 35.9957 108.69 36.1364 108.099 36.1364ZM108.099 35.233C108.548 35.233 108.917 35.1179 109.207 34.8878C109.497 34.6577 109.711 34.3551 109.85 33.9801C109.99 33.6051 110.059 33.1989 110.059 32.7614C110.059 32.3239 109.99 31.9162 109.85 31.5384C109.711 31.1605 109.497 30.8551 109.207 30.6222C108.917 30.3892 108.548 30.2727 108.099 30.2727C107.65 30.2727 107.281 30.3892 106.991 30.6222C106.701 30.8551 106.487 31.1605 106.348 31.5384C106.208 31.9162 106.139 32.3239 106.139 32.7614C106.139 33.1989 106.208 33.6051 106.348 33.9801C106.487 34.3551 106.701 34.6577 106.991 34.8878C107.281 35.1179 107.65 35.233 108.099 35.233ZM118.634 36.1364C118.021 36.1364 117.492 35.9915 117.049 35.7017C116.606 35.4119 116.265 35.0128 116.026 34.5043C115.788 33.9957 115.668 33.4148 115.668 32.7614C115.668 32.0966 115.79 31.5099 116.035 31.0014C116.282 30.4901 116.626 30.0909 117.066 29.804C117.509 29.5142 118.026 29.3693 118.617 29.3693C119.077 29.3693 119.492 29.4545 119.862 29.625C120.231 29.7955 120.533 30.0341 120.769 30.3409C121.005 30.6477 121.151 31.0057 121.208 31.4148H120.202C120.126 31.1165 119.955 30.8523 119.691 30.6222C119.43 30.3892 119.077 30.2727 118.634 30.2727C118.242 30.2727 117.898 30.375 117.603 30.5795C117.31 30.7812 117.082 31.0668 116.917 31.4361C116.755 31.8026 116.674 32.233 116.674 32.7273C116.674 33.233 116.754 33.6733 116.913 34.0483C117.075 34.4233 117.302 34.7145 117.594 34.9219C117.89 35.1293 118.237 35.233 118.634 35.233C118.896 35.233 119.133 35.1875 119.346 35.0966C119.559 35.0057 119.739 34.875 119.887 34.7045C120.035 34.5341 120.14 34.3295 120.202 34.0909H121.208C121.151 34.4773 121.011 34.8253 120.786 35.1349C120.565 35.4418 120.271 35.6861 119.904 35.8679C119.54 36.0469 119.117 36.1364 118.634 36.1364ZM125.337 36.1364C124.746 36.1364 124.228 35.9957 123.782 35.7145C123.339 35.4332 122.992 35.0398 122.742 34.5341C122.495 34.0284 122.371 33.4375 122.371 32.7614C122.371 32.0795 122.495 31.4844 122.742 30.9759C122.992 30.4673 123.339 30.0724 123.782 29.7912C124.228 29.5099 124.746 29.3693 125.337 29.3693C125.928 29.3693 126.445 29.5099 126.888 29.7912C127.335 30.0724 127.681 30.4673 127.928 30.9759C128.178 31.4844 128.303 32.0795 128.303 32.7614C128.303 33.4375 128.178 34.0284 127.928 34.5341C127.681 35.0398 127.335 35.4332 126.888 35.7145C126.445 35.9957 125.928 36.1364 125.337 36.1364ZM125.337 35.233C125.786 35.233 126.156 35.1179 126.445 34.8878C126.735 34.6577 126.95 34.3551 127.089 33.9801C127.228 33.6051 127.298 33.1989 127.298 32.7614C127.298 32.3239 127.228 31.9162 127.089 31.5384C126.95 31.1605 126.735 30.8551 126.445 30.6222C126.156 30.3892 125.786 30.2727 125.337 30.2727C124.888 30.2727 124.519 30.3892 124.229 30.6222C123.94 30.8551 123.725 31.1605 123.586 31.5384C123.447 31.9162 123.377 32.3239 123.377 32.7614C123.377 33.1989 123.447 33.6051 123.586 33.9801C123.725 34.3551 123.94 34.6577 124.229 34.8878C124.519 35.1179 124.888 35.233 125.337 35.233ZM129.838 36V29.4545H130.81V30.4773H130.895C131.032 30.1278 131.252 29.8565 131.556 29.6634C131.86 29.4673 132.225 29.3693 132.651 29.3693C133.083 29.3693 133.442 29.4673 133.729 29.6634C134.019 29.8565 134.245 30.1278 134.407 30.4773H134.475C134.642 30.1392 134.894 29.8707 135.229 29.6719C135.564 29.4702 135.966 29.3693 136.435 29.3693C137.02 29.3693 137.499 29.5526 137.871 29.919C138.243 30.2827 138.429 30.8494 138.429 31.6193V36H137.424V31.6193C137.424 31.1364 137.292 30.7912 137.027 30.5838C136.763 30.3764 136.452 30.2727 136.094 30.2727C135.634 30.2727 135.277 30.4119 135.025 30.6903C134.772 30.9659 134.645 31.3153 134.645 31.7386V36H133.623V31.517C133.623 31.1449 133.502 30.8452 133.26 30.6179C133.019 30.3878 132.708 30.2727 132.327 30.2727C132.066 30.2727 131.821 30.3423 131.594 30.4815C131.37 30.6207 131.188 30.8139 131.049 31.0611C130.912 31.3054 130.844 31.5881 130.844 31.9091V36H129.838ZM140.268 38.4545V29.4545H141.24V30.4943H141.359C141.433 30.3807 141.535 30.2358 141.666 30.0597C141.799 29.8807 141.99 29.7216 142.237 29.5824C142.487 29.4403 142.825 29.3693 143.251 29.3693C143.802 29.3693 144.288 29.5071 144.708 29.7827C145.129 30.0582 145.457 30.4489 145.693 30.9545C145.929 31.4602 146.047 32.0568 146.047 32.7443C146.047 33.4375 145.929 34.0384 145.693 34.5469C145.457 35.0526 145.13 35.4446 144.713 35.723C144.295 35.9986 143.814 36.1364 143.268 36.1364C142.848 36.1364 142.511 36.0668 142.258 35.9276C142.005 35.7855 141.811 35.625 141.674 35.446C141.538 35.2642 141.433 35.1136 141.359 34.9943H141.274V38.4545H140.268ZM141.257 32.7273C141.257 33.2216 141.329 33.6577 141.474 34.0355C141.619 34.4105 141.831 34.7045 142.109 34.9176C142.387 35.1278 142.728 35.233 143.132 35.233C143.552 35.233 143.903 35.1222 144.184 34.9006C144.468 34.6761 144.681 34.375 144.824 33.9972C144.968 33.6165 145.041 33.1932 145.041 32.7273C145.041 32.267 144.97 31.8523 144.828 31.483C144.689 31.1108 144.477 30.8168 144.193 30.6009C143.912 30.3821 143.558 30.2727 143.132 30.2727C142.723 30.2727 142.379 30.3764 142.1 30.5838C141.822 30.7884 141.612 31.0753 141.47 31.4446C141.328 31.8111 141.257 32.2386 141.257 32.7273ZM148.586 27.2727V36H147.581V27.2727H148.586ZM153.173 36.1364C152.542 36.1364 151.998 35.9972 151.54 35.7188C151.086 35.4375 150.735 35.0455 150.488 34.5426C150.244 34.0369 150.121 33.4489 150.121 32.7784C150.121 32.108 150.244 31.517 150.488 31.0057C150.735 30.4915 151.079 30.0909 151.519 29.804C151.962 29.5142 152.479 29.3693 153.07 29.3693C153.411 29.3693 153.748 29.4261 154.08 29.5398C154.413 29.6534 154.715 29.8381 154.988 30.0938C155.261 30.3466 155.478 30.6818 155.64 31.0994C155.802 31.517 155.883 32.0312 155.883 32.642V33.0682H150.837V32.1989H154.86C154.86 31.8295 154.786 31.5 154.638 31.2102C154.494 30.9205 154.286 30.6918 154.016 30.5241C153.749 30.3565 153.434 30.2727 153.07 30.2727C152.67 30.2727 152.323 30.3722 152.031 30.571C151.741 30.767 151.518 31.0227 151.362 31.3381C151.205 31.6534 151.127 31.9915 151.127 32.3523V32.9318C151.127 33.4261 151.212 33.8452 151.383 34.1889C151.556 34.5298 151.796 34.7898 152.103 34.9688C152.41 35.1449 152.766 35.233 153.173 35.233C153.437 35.233 153.675 35.196 153.888 35.1222C154.104 35.0455 154.29 34.9318 154.447 34.7812C154.603 34.6278 154.724 34.4375 154.809 34.2102L155.781 34.483C155.678 34.8125 155.506 35.1023 155.265 35.3523C155.023 35.5994 154.725 35.7926 154.37 35.9318C154.015 36.0682 153.616 36.1364 153.173 36.1364ZM160.259 29.4545V30.3068H156.867V29.4545H160.259ZM157.856 27.8864H158.862V34.125C158.862 34.4091 158.903 34.6222 158.985 34.7642C159.07 34.9034 159.178 34.9972 159.309 35.0455C159.442 35.0909 159.583 35.1136 159.731 35.1136C159.842 35.1136 159.933 35.108 160.004 35.0966C160.075 35.0824 160.131 35.071 160.174 35.0625L160.379 35.9659C160.31 35.9915 160.215 36.017 160.093 36.0426C159.971 36.071 159.816 36.0852 159.629 36.0852C159.344 36.0852 159.066 36.0241 158.793 35.902C158.523 35.7798 158.299 35.5938 158.12 35.3438C157.944 35.0938 157.856 34.7784 157.856 34.3977V27.8864ZM164.446 36.1364C163.815 36.1364 163.271 35.9972 162.814 35.7188C162.359 35.4375 162.009 35.0455 161.761 34.5426C161.517 34.0369 161.395 33.4489 161.395 32.7784C161.395 32.108 161.517 31.517 161.761 31.0057C162.009 30.4915 162.352 30.0909 162.793 29.804C163.236 29.5142 163.753 29.3693 164.344 29.3693C164.685 29.3693 165.021 29.4261 165.354 29.5398C165.686 29.6534 165.989 29.8381 166.261 30.0938C166.534 30.3466 166.751 30.6818 166.913 31.0994C167.075 31.517 167.156 32.0312 167.156 32.642V33.0682H162.111V32.1989H166.134C166.134 31.8295 166.06 31.5 165.912 31.2102C165.767 30.9205 165.56 30.6918 165.29 30.5241C165.023 30.3565 164.707 30.2727 164.344 30.2727C163.943 30.2727 163.597 30.3722 163.304 30.571C163.014 30.767 162.791 31.0227 162.635 31.3381C162.479 31.6534 162.401 31.9915 162.401 32.3523V32.9318C162.401 33.4261 162.486 33.8452 162.656 34.1889C162.83 34.5298 163.07 34.7898 163.376 34.9688C163.683 35.1449 164.04 35.233 164.446 35.233C164.71 35.233 164.949 35.196 165.162 35.1222C165.378 35.0455 165.564 34.9318 165.72 34.7812C165.876 34.6278 165.997 34.4375 166.082 34.2102L167.054 34.483C166.952 34.8125 166.78 35.1023 166.538 35.3523C166.297 35.5994 165.999 35.7926 165.643 35.9318C165.288 36.0682 164.889 36.1364 164.446 36.1364ZM174.908 29.4545V30.3068H171.516V29.4545H174.908ZM172.504 27.8864H173.51V34.125C173.51 34.4091 173.551 34.6222 173.634 34.7642C173.719 34.9034 173.827 34.9972 173.957 35.0455C174.091 35.0909 174.232 35.1136 174.379 35.1136C174.49 35.1136 174.581 35.108 174.652 35.0966C174.723 35.0824 174.78 35.071 174.822 35.0625L175.027 35.9659C174.959 35.9915 174.864 36.017 174.741 36.0426C174.619 36.071 174.464 36.0852 174.277 36.0852C173.993 36.0852 173.714 36.0241 173.442 35.902C173.172 35.7798 172.947 35.5938 172.768 35.3438C172.592 35.0938 172.504 34.7784 172.504 34.3977V27.8864ZM177.567 32.0625V36H176.561V27.2727H177.567V30.4773H177.652C177.805 30.1392 178.036 29.8707 178.342 29.6719C178.652 29.4702 179.064 29.3693 179.578 29.3693C180.024 29.3693 180.415 29.4588 180.75 29.6378C181.085 29.8139 181.345 30.0852 181.53 30.4517C181.717 30.8153 181.811 31.2784 181.811 31.8409V36H180.805V31.9091C180.805 31.3892 180.67 30.9872 180.401 30.7031C180.134 30.4162 179.763 30.2727 179.288 30.2727C178.959 30.2727 178.663 30.3423 178.402 30.4815C178.143 30.6207 177.939 30.8239 177.788 31.0909C177.641 31.358 177.567 31.6818 177.567 32.0625ZM186.395 36.1364C185.765 36.1364 185.221 35.9972 184.763 35.7188C184.309 35.4375 183.958 35.0455 183.711 34.5426C183.466 34.0369 183.344 33.4489 183.344 32.7784C183.344 32.108 183.466 31.517 183.711 31.0057C183.958 30.4915 184.301 30.0909 184.742 29.804C185.185 29.5142 185.702 29.3693 186.293 29.3693C186.634 29.3693 186.971 29.4261 187.303 29.5398C187.635 29.6534 187.938 29.8381 188.211 30.0938C188.483 30.3466 188.701 30.6818 188.863 31.0994C189.025 31.517 189.105 32.0312 189.105 32.642V33.0682H184.06V32.1989H188.083C188.083 31.8295 188.009 31.5 187.861 31.2102C187.716 30.9205 187.509 30.6918 187.239 30.5241C186.972 30.3565 186.657 30.2727 186.293 30.2727C185.892 30.2727 185.546 30.3722 185.253 30.571C184.963 30.767 184.74 31.0227 184.584 31.3381C184.428 31.6534 184.35 31.9915 184.35 32.3523V32.9318C184.35 33.4261 184.435 33.8452 184.605 34.1889C184.779 34.5298 185.019 34.7898 185.326 34.9688C185.632 35.1449 185.989 35.233 186.395 35.233C186.659 35.233 186.898 35.196 187.111 35.1222C187.327 35.0455 187.513 34.9318 187.669 34.7812C187.826 34.6278 187.946 34.4375 188.032 34.2102L189.003 34.483C188.901 34.8125 188.729 35.1023 188.488 35.3523C188.246 35.5994 187.948 35.7926 187.593 35.9318C187.238 36.0682 186.838 36.1364 186.395 36.1364ZM196.857 29.4545V30.3068H193.465V29.4545H196.857ZM194.453 27.8864H195.459V34.125C195.459 34.4091 195.5 34.6222 195.583 34.7642C195.668 34.9034 195.776 34.9972 195.907 35.0455C196.04 35.0909 196.181 35.1136 196.328 35.1136C196.439 35.1136 196.53 35.108 196.601 35.0966C196.672 35.0824 196.729 35.071 196.772 35.0625L196.976 35.9659C196.908 35.9915 196.813 36.017 196.691 36.0426C196.569 36.071 196.414 36.0852 196.226 36.0852C195.942 36.0852 195.664 36.0241 195.391 35.902C195.121 35.7798 194.897 35.5938 194.718 35.3438C194.542 35.0938 194.453 34.7784 194.453 34.3977V27.8864ZM200.296 36.1534C199.881 36.1534 199.505 36.0753 199.167 35.919C198.828 35.7599 198.56 35.5312 198.361 35.233C198.162 34.9318 198.063 34.5682 198.063 34.142C198.063 33.767 198.137 33.4631 198.284 33.2301C198.432 32.9943 198.63 32.8097 198.877 32.6761C199.124 32.5426 199.397 32.4432 199.695 32.3778C199.996 32.3097 200.299 32.2557 200.603 32.2159C201 32.1648 201.323 32.1264 201.57 32.1009C201.82 32.0724 202.002 32.0256 202.115 31.9602C202.232 31.8949 202.29 31.7812 202.29 31.6193V31.5852C202.29 31.1648 202.175 30.8381 201.945 30.6051C201.718 30.3722 201.373 30.2557 200.909 30.2557C200.429 30.2557 200.053 30.3608 199.78 30.571C199.507 30.7812 199.316 31.0057 199.205 31.2443L198.25 30.9034C198.421 30.5057 198.648 30.196 198.932 29.9744C199.219 29.75 199.532 29.5937 199.87 29.5057C200.211 29.4148 200.546 29.3693 200.875 29.3693C201.086 29.3693 201.327 29.3949 201.6 29.446C201.875 29.4943 202.141 29.5952 202.397 29.7486C202.655 29.902 202.87 30.1335 203.04 30.4432C203.211 30.7528 203.296 31.1676 203.296 31.6875V36H202.29V35.1136H202.239C202.171 35.2557 202.057 35.4077 201.898 35.5696C201.739 35.7315 201.527 35.8693 201.263 35.983C200.999 36.0966 200.676 36.1534 200.296 36.1534ZM200.449 35.25C200.847 35.25 201.182 35.1719 201.455 35.0156C201.73 34.8594 201.938 34.6577 202.077 34.4105C202.219 34.1634 202.29 33.9034 202.29 33.6307V32.7102C202.248 32.7614 202.154 32.8082 202.009 32.8509C201.867 32.8906 201.702 32.9261 201.515 32.9574C201.33 32.9858 201.15 33.0114 200.973 33.0341C200.8 33.054 200.659 33.071 200.551 33.0852C200.29 33.1193 200.046 33.1747 199.819 33.2514C199.594 33.3253 199.412 33.4375 199.273 33.5881C199.137 33.7358 199.069 33.9375 199.069 34.1932C199.069 34.5426 199.198 34.8068 199.456 34.9858C199.718 35.1619 200.049 35.25 200.449 35.25ZM209.768 30.9205L208.864 31.1761C208.808 31.0256 208.724 30.8793 208.613 30.7372C208.505 30.5923 208.357 30.473 208.17 30.3793C207.982 30.2855 207.742 30.2386 207.45 30.2386C207.049 30.2386 206.715 30.331 206.448 30.5156C206.184 30.6974 206.052 30.929 206.052 31.2102C206.052 31.4602 206.143 31.6577 206.325 31.8026C206.506 31.9474 206.79 32.0682 207.177 32.1648L208.148 32.4034C208.734 32.5455 209.17 32.7628 209.457 33.0554C209.744 33.3452 209.887 33.7187 209.887 34.1761C209.887 34.5511 209.779 34.8864 209.563 35.1818C209.35 35.4773 209.052 35.7102 208.668 35.8807C208.285 36.0511 207.839 36.1364 207.33 36.1364C206.663 36.1364 206.11 35.9915 205.673 35.7017C205.235 35.4119 204.958 34.9886 204.842 34.4318L205.796 34.1932C205.887 34.5455 206.059 34.8097 206.312 34.9858C206.567 35.1619 206.901 35.25 207.313 35.25C207.782 35.25 208.154 35.1506 208.43 34.9517C208.708 34.75 208.847 34.5085 208.847 34.2273C208.847 34 208.768 33.8097 208.609 33.6562C208.45 33.5 208.205 33.3835 207.876 33.3068L206.785 33.0511C206.185 32.9091 205.745 32.6889 205.464 32.3906C205.185 32.0895 205.046 31.7131 205.046 31.2614C205.046 30.892 205.15 30.5653 205.357 30.2812C205.567 29.9972 205.853 29.7741 206.214 29.6122C206.577 29.4503 206.989 29.3693 207.45 29.3693C208.097 29.3693 208.606 29.5114 208.975 29.7955C209.347 30.0795 209.612 30.4545 209.768 30.9205ZM212.338 33.6136L212.321 32.3693H212.526L215.39 29.4545H216.634L213.583 32.5398H213.498L212.338 33.6136ZM211.401 36V27.2727H212.407V36H211.401ZM215.56 36L213.003 32.7614L213.719 32.0625L216.838 36H215.56Z" fill="white"/>
</svg>
